<?xml version="1.0" standalone="no"?>
<!DOCTYPE svg PUBLIC "-//W3C//DTD SVG 20010904//EN"
 "http://www.w3.org/TR/2001/REC-SVG-20010904/DTD/svg10.dtd">
<svg version="1.0" xmlns="http://www.w3.org/2000/svg"
 width="561.000000pt" height="378.000000pt" viewBox="0 0 561.000000 378.000000"
 preserveAspectRatio="xMidYMid meet">

<g transform="translate(0.000000,378.000000) scale(0.100000,-0.100000)"
fill="#000000" stroke="none">
<path d="M0 1890 l0 -1890 2805 0 2805 0 0 1890 0 1890 -2805 0 -2805 0 0
-1890z m5550 -120 l0 -1670 -2750 0 -2750 0 0 1670 0 1670 2750 0 2750 0 0
-1670z"/>
<path d="M4370 2920 l0 -380 480 0 480 0 0 250 0 250 60 0 60 0 0 133 c0 89
-3 127 -10 117 -6 -10 -10 -11 -10 -2 0 9 -113 12 -530 12 l-530 0 0 -380z
m740 310 c0 -5 9 -10 19 -10 15 0 19 -7 19 -30 -1 -16 -5 -30 -10 -30 -4 0 -8
4 -8 9 0 5 -9 13 -20 16 -21 7 -29 55 -10 55 6 0 10 -4 10 -10z m327 -12 c-3
-8 -6 -5 -6 6 -1 11 2 17 5 13 3 -3 4 -12 1 -19z m-187 -16 c0 -11 10 -24 23
-30 l22 -11 -22 0 c-16 -1 -23 -7 -23 -21 0 -11 -4 -20 -10 -20 -5 0 -10 23
-10 50 0 28 5 50 10 50 6 0 10 -8 10 -18z m140 3 c0 -8 -4 -15 -10 -15 -5 0
-10 7 -10 15 0 8 5 15 10 15 6 0 10 -7 10 -15z m-172 -23 c2 -7 -2 -10 -12 -6
-9 3 -16 11 -16 16 0 13 23 5 28 -10z m112 8 c0 -5 -4 -10 -10 -10 -5 0 -10 5
-10 10 0 6 5 10 10 10 6 0 10 -4 10 -10z m60 -20 c0 -5 -9 -10 -20 -10 -11 0
-20 5 -20 10 0 6 9 10 20 10 11 0 20 -4 20 -10z m-100 -40 c0 -5 -4 -10 -10
-10 -5 0 -10 5 -10 10 0 6 5 10 10 10 6 0 10 -4 10 -10z"/>
<path d="M230 3160 c0 -55 4 -100 9 -100 5 0 9 -36 8 -80 -1 -44 -5 -80 -9
-80 -5 0 -8 -163 -7 -362 0 -212 4 -355 9 -343 7 16 9 12 9 -18 1 -23 -3 -36
-9 -32 -7 4 -10 -118 -10 -359 l0 -366 108 1 c59 0 116 4 127 9 17 7 17 9 3 9
-13 1 -18 9 -18 31 0 17 5 30 11 30 5 0 8 -4 4 -9 -3 -5 6 -21 19 -34 14 -14
22 -28 19 -31 -4 -3 267 -6 600 -6 l607 0 0 920 0 920 -740 0 -740 0 0 -100z
m842 -210 c2 -5 15 -11 30 -12 15 -1 24 -6 22 -10 -3 -4 2 -8 10 -8 9 0 16 -4
16 -10 0 -5 14 -10 30 -10 24 0 30 -4 30 -22 0 -19 2 -20 10 -8 8 12 10 11 10
-7 0 -12 5 -23 11 -25 17 -6 2 -94 -19 -115 -12 -12 -13 -18 -4 -21 30 -10 6
-102 -27 -102 -6 0 -11 -6 -12 -12 0 -10 -2 -10 -6 0 -12 31 -23 6 -23 -53 0
-37 -4 -65 -10 -65 -6 0 -10 -35 -10 -86 0 -54 4 -83 10 -79 6 4 10 -8 10 -29
0 -20 -4 -36 -10 -36 -5 0 -10 10 -10 23 0 17 -2 19 -10 7 -6 -9 -10 25 -14
100 -7 156 -16 233 -28 245 -8 7 -9 6 -4 -2 4 -8 1 -13 -8 -13 -9 0 -16 5 -16
10 0 6 -40 10 -100 10 -55 0 -100 -4 -100 -9 0 -5 -8 -8 -17 -6 -10 2 -22 4
-28 4 -5 1 -3 6 5 12 11 8 9 9 -10 3 -14 -4 -26 -11 -28 -15 -5 -14 -32 -11
-48 5 -16 16 -19 96 -4 96 6 0 10 11 10 24 0 13 7 29 15 36 9 7 14 19 11 27
-3 7 -1 13 4 13 6 0 10 7 10 15 0 8 5 15 10 15 6 0 10 9 10 21 0 11 5 17 10
14 6 -3 10 1 10 9 0 11 9 16 30 16 17 0 30 5 30 10 0 6 18 10 40 10 22 0 40 5
40 10 0 6 14 10 30 10 17 0 30 5 30 10 0 13 57 13 62 0z m-825 -207 c-2 -16
-4 -3 -4 27 0 30 2 43 4 28 2 -16 2 -40 0 -55z m0 -470 c-3 -10 -5 -2 -5 17 0
19 2 27 5 18 2 -10 2 -26 0 -35z m763 -1 c0 -4 -12 -9 -27 -10 -16 -1 -29 -7
-31 -12 -2 -6 -16 -10 -30 -10 -28 0 -54 -12 -53 -24 4 -29 -1 -56 -9 -51 -5
3 -10 -1 -10 -9 0 -9 -9 -16 -20 -16 -13 0 -20 -7 -20 -20 0 -17 -7 -20 -50
-20 -49 0 -50 1 -50 30 0 17 5 30 10 30 6 0 10 18 10 40 l0 40 60 0 c33 0 60
4 60 9 0 5 21 9 47 9 26 0 49 5 51 11 4 12 62 15 62 3z m573 -17 c-3 -9 -8
-14 -10 -11 -3 3 -2 9 2 15 9 16 15 13 8 -4z m-1013 -61 c0 -8 -4 -14 -9 -14
-6 0 -9 9 -8 19 1 22 17 18 17 -5z m560 -24 c0 -5 -9 -10 -20 -10 -11 0 -20 5
-20 10 0 6 9 10 20 10 11 0 20 -4 20 -10z m-100 -120 c0 -5 13 -10 29 -10 35
0 46 -22 22 -44 -12 -11 -37 -16 -84 -16 -63 0 -67 1 -67 23 0 18 2 19 10 7 8
-12 10 -11 10 8 0 17 6 22 25 22 14 0 25 5 25 10 0 6 7 10 15 10 8 0 15 -4 15
-10z m-476 -18 c7 -12 -12 -38 -21 -28 -4 5 -2 11 6 14 11 4 11 6 0 13 -9 6
-10 9 -2 9 6 0 14 -4 17 -8z m36 -2 c0 -5 -2 -10 -4 -10 -3 0 -8 5 -11 10 -3
6 -1 10 4 10 6 0 11 -4 11 -10z m820 -111 c0 -10 -4 -19 -10 -19 -5 0 -10 -9
-10 -20 0 -11 -4 -20 -10 -20 -5 0 -10 14 -10 30 0 17 5 30 10 30 6 0 10 7 10
16 0 8 5 12 10 9 6 -3 10 -15 10 -26z m-605 11 c-3 -5 0 -10 8 -10 8 0 19 -15
25 -32 8 -26 10 -28 11 -10 1 18 7 22 31 22 17 0 30 5 30 10 0 6 23 10 50 10
28 0 50 5 50 10 0 6 27 10 60 10 33 0 60 -4 60 -10 0 -5 9 -10 20 -10 11 0 20
-4 20 -10 0 -5 -9 -10 -20 -10 -13 0 -20 -7 -20 -20 0 -11 -4 -20 -10 -20 -5
0 -10 -18 -10 -40 0 -22 5 -40 10 -40 6 0 10 -13 10 -30 0 -26 4 -30 26 -30
35 0 54 -22 54 -62 0 -28 -6 -36 -40 -55 -23 -14 -56 -23 -79 -23 -23 0 -40
-3 -40 -7 3 -19 -2 -33 -11 -33 -5 0 -10 9 -10 20 0 17 -7 20 -44 20 -25 0
-48 5 -51 10 -3 6 -14 10 -23 10 -10 0 -24 9 -32 20 -8 11 -20 20 -27 20 -7 0
-13 1 -14 3 0 1 -2 22 -5 47 -6 57 -25 120 -36 120 -4 0 -8 29 -8 65 0 39 4
65 11 65 5 0 7 -4 4 -10z"/>
<path d="M834 2689 c-3 -5 6 -9 20 -9 31 0 34 6 6 13 -11 3 -23 1 -26 -4z"/>
<path d="M1890 3170 c0 -83 1 -90 20 -90 18 0 20 7 20 76 0 69 -11 104 -34
104 -3 0 -6 -40 -6 -90z"/>
<path d="M1962 3245 c-8 -10 -9 -15 -2 -15 8 0 10 -25 8 -75 l-3 -75 58 0 c73
0 87 12 87 80 0 68 -30 100 -92 100 -25 -1 -48 -7 -56 -15z m108 -71 c0 -44
-16 -74 -40 -74 -24 0 -40 30 -40 74 l0 46 40 0 40 0 0 -46z"/>
<path d="M2273 3235 c-13 -13 -23 -30 -23 -37 0 -8 -9 -20 -20 -28 -12 -8 -20
-26 -20 -42 0 -23 4 -28 26 -28 14 0 32 -7 41 -16 14 -14 17 -13 34 5 20 22
25 51 9 51 -6 0 -10 27 -10 60 0 33 -3 60 -7 59 -5 0 -18 -11 -30 -24z m17
-75 c0 -13 -7 -20 -20 -20 -23 0 -26 10 -8 28 18 18 28 15 28 -8z"/>
<path d="M2373 3235 c-17 -18 -23 -36 -23 -70 0 -25 5 -45 10 -45 6 0 10 -9
10 -20 0 -16 7 -20 36 -20 19 0 42 6 50 14 17 17 20 126 3 126 -5 0 -7 5 -4
10 3 6 -1 10 -9 10 -9 0 -16 5 -16 10 0 18 -35 9 -57 -15z m57 -75 c0 -33 -3
-60 -6 -60 -18 0 -34 34 -34 74 0 39 3 46 20 46 18 0 20 -7 20 -60z"/>
<path d="M2525 3247 c-24 -31 -35 -59 -35 -92 0 -19 5 -35 10 -35 6 0 10 -9
10 -20 0 -16 7 -20 36 -20 51 0 64 18 64 90 0 53 -3 63 -20 67 -11 3 -20 9
-20 14 0 13 -34 10 -45 -4z m45 -87 c0 -33 -3 -60 -6 -60 -18 0 -34 34 -34 74
0 39 3 46 20 46 18 0 20 -7 20 -60z"/>
<path d="M2653 3235 c-28 -30 -29 -35 -3 -35 11 0 20 5 20 10 0 6 9 10 20 10
35 0 25 -47 -20 -90 -22 -21 -40 -41 -40 -44 0 -3 27 -6 60 -6 33 0 60 4 60
10 0 6 -13 10 -30 10 -16 0 -30 3 -30 6 0 3 14 19 30 34 21 20 30 37 30 60 0
60 -55 80 -97 35z"/>
<path d="M2803 3245 c-7 -8 -13 -35 -13 -60 0 -25 -4 -45 -10 -45 -14 0 -12
-29 3 -45 14 -13 41 -18 85 -16 19 1 22 7 22 40 0 22 -6 42 -12 45 -10 5 -10
7 0 12 16 8 15 52 -2 70 -18 18 -57 18 -73 -1z m47 -45 c0 -13 -7 -20 -20 -20
-13 0 -20 7 -20 20 0 13 7 20 20 20 13 0 20 -7 20 -20z m0 -79 c0 -14 -6 -19
-20 -18 -12 1 -20 8 -20 19 0 11 7 18 20 18 13 0 20 -7 20 -19z"/>
<path d="M2933 3235 c-40 -42 -22 -95 31 -95 19 0 26 -5 26 -20 0 -11 -4 -20
-10 -20 -5 0 -10 5 -10 10 0 6 -9 10 -20 10 -30 0 -27 -40 3 -41 61 -3 77 14
77 81 0 41 -5 56 -25 75 -30 31 -44 31 -72 0z m57 -38 c0 -31 -9 -39 -26 -22
-21 20 -17 45 6 45 14 0 20 -7 20 -23z"/>
<path d="M3083 3245 c-15 -17 -17 -45 -3 -45 6 0 10 5 10 10 0 6 9 10 20 10
36 0 25 -47 -21 -91 -23 -22 -40 -41 -38 -43 2 -2 30 -6 62 -8 42 -3 57 -1 57
9 0 8 -12 13 -30 13 -16 0 -30 3 -30 6 0 3 14 19 30 34 50 46 36 121 -22 120
-13 -1 -29 -7 -35 -15z"/>
<path d="M3223 3245 c-15 -17 -17 -45 -3 -45 6 0 10 5 10 10 0 18 35 10 48
-11 8 -12 9 -18 3 -14 -6 3 -11 1 -11 -4 0 -6 -18 -30 -40 -52 -22 -23 -39
-44 -36 -46 2 -2 29 -5 60 -6 40 -2 56 1 56 10 0 8 -12 13 -30 13 -16 0 -30 3
-30 6 0 3 14 19 30 34 50 46 36 121 -22 120 -13 -1 -29 -7 -35 -15z"/>
<path d="M2150 3200 c0 -13 7 -20 20 -20 24 0 25 6 6 26 -20 19 -26 18 -26 -6z"/>
<path d="M2150 3090 c0 -5 9 -10 20 -10 11 0 20 5 20 10 0 6 -9 10 -20 10 -11
0 -20 -4 -20 -10z"/>
<path d="M1892 2853 c-17 -17 -22 -34 -22 -73 0 -32 4 -49 10 -45 6 3 10 -3
10 -14 0 -19 6 -21 60 -21 48 0 60 3 60 16 0 8 5 12 10 9 6 -3 10 -1 10 4 0 6
-13 11 -30 11 -16 0 -30 -4 -30 -10 0 -15 -29 -12 -46 4 -8 9 -14 34 -14 60
l0 46 40 0 c22 0 40 -4 40 -10 0 -5 5 -10 10 -10 15 0 12 29 -5 46 -21 21 -76
14 -103 -13z"/>
<path d="M2069 2868 c-1 -7 -1 -36 1 -65 1 -29 -2 -58 -6 -65 -15 -23 -12 -34
7 -35 15 -1 19 5 19 33 0 38 18 64 44 64 12 0 16 -11 16 -50 0 -43 3 -50 20
-50 17 0 20 7 20 45 0 36 -6 52 -27 73 -17 17 -28 22 -31 14 -2 -7 -12 -12
-23 -12 -14 0 -19 7 -19 30 0 29 -19 44 -21 18z"/>
<path d="M2330 2790 c0 -53 4 -90 10 -90 6 0 10 37 10 90 0 53 -4 90 -10 90
-6 0 -10 -37 -10 -90z"/>
<path d="M2617 2873 c-4 -3 -7 -44 -7 -90 l0 -83 66 0 c43 0 70 5 80 14 15 15
19 46 6 46 -4 0 -13 9 -20 21 -8 12 -9 18 -3 14 17 -10 13 54 -3 71 -15 14
-107 20 -119 7z m113 -39 c0 -14 -31 -34 -54 -34 -19 0 -26 5 -26 20 0 17 7
20 40 20 22 0 40 -3 40 -6z m0 -80 c0 -14 -31 -34 -54 -34 -19 0 -26 5 -26 20
0 17 7 20 40 20 22 0 40 -3 40 -6z"/>
<path d="M3790 2850 c0 -34 -2 -35 -30 -17 -15 8 -23 9 -28 1 -4 -6 -15 -13
-24 -17 -13 -5 -18 -17 -18 -47 0 -56 17 -70 83 -70 l55 0 1 75 c1 55 -3 80
-13 90 -21 22 -26 19 -26 -15z m-14 -64 c8 -8 14 -20 14 -26 0 -17 -26 -40
-44 -40 -12 0 -16 10 -16 40 0 43 18 53 46 26z"/>
<path d="M3323 2845 c-15 -17 -17 -45 -3 -45 6 0 10 -22 10 -50 0 -49 1 -50
30 -50 17 0 30 5 30 10 0 6 -4 10 -10 10 -5 0 -10 18 -10 40 0 22 5 40 10 40
6 0 10 9 10 21 0 11 -4 17 -10 14 -5 -3 -10 1 -10 9 0 20 -31 20 -47 1z"/>
<path d="M2223 2825 c-7 -8 -13 -39 -13 -70 0 -48 2 -55 20 -55 16 0 20 7 20
38 0 26 6 42 20 52 11 8 20 22 20 32 0 21 -16 24 -24 6 -5 -10 -7 -10 -12 0
-7 15 -16 15 -31 -3z"/>
<path d="M2403 2825 c-21 -23 -16 -65 7 -65 11 0 20 -4 20 -10 0 -5 9 -10 20
-10 11 0 20 -4 20 -10 0 -5 -13 -10 -30 -10 -16 0 -30 5 -30 10 0 6 -4 10 -10
10 -5 0 -10 -9 -10 -20 0 -17 7 -20 46 -20 26 0 52 6 60 14 16 17 19 46 4 46
-5 0 -10 12 -10 26 0 47 -57 73 -87 39z m53 -19 c19 -20 18 -26 -6 -26 -13 0
-20 7 -20 20 0 24 6 25 26 6z"/>
<path d="M2803 2825 c-18 -20 -16 -93 2 -111 22 -22 117 -15 121 9 1 9 -2 14
-8 11 -6 -4 -9 11 -8 37 3 61 1 69 -10 69 -5 0 -10 -21 -10 -46 0 -49 -20 -80
-45 -70 -11 4 -15 21 -15 61 0 56 -6 65 -27 40z"/>
<path d="M3010 2830 c0 -5 -13 -10 -30 -10 l-30 0 0 -60 c0 -53 2 -60 20 -60
17 0 20 7 20 50 0 43 3 50 20 50 17 0 20 -7 20 -50 0 -43 3 -50 20 -50 17 0
20 7 20 50 0 43 3 50 20 50 17 0 20 -7 20 -50 0 -43 3 -50 20 -50 18 0 20 7
20 58 0 54 -2 60 -27 71 -19 9 -29 9 -31 2 -5 -15 -42 -14 -42 2 0 8 -4 7 -10
-3 -6 -10 -10 -11 -10 -2 0 6 -4 12 -10 12 -5 0 -10 -4 -10 -10z"/>
<path d="M3210 2830 c0 -16 46 -41 64 -34 22 9 20 24 -4 24 -11 0 -20 5 -20
10 0 6 -9 10 -20 10 -11 0 -20 -4 -20 -10z"/>
<path d="M3450 2830 c0 -5 -9 -10 -20 -10 -18 0 -20 -7 -20 -56 0 -34 4 -53
10 -49 6 3 10 1 10 -4 0 -6 18 -11 40 -11 33 0 40 3 40 20 0 11 -4 20 -10 20
-5 0 -10 -4 -10 -10 0 -19 -38 -10 -43 10 -5 18 0 20 39 20 37 0 44 3 42 17
-6 37 -78 86 -78 53z m40 -40 c0 -5 -9 -10 -20 -10 -11 0 -20 5 -20 10 0 6 9
10 20 10 11 0 20 -4 20 -10z"/>
<path d="M3563 2825 c-19 -21 -16 -34 7 -28 11 3 20 9 20 14 0 17 18 9 23 -11
4 -15 0 -20 -15 -20 -27 0 -48 -24 -48 -54 0 -25 2 -26 60 -26 33 0 60 4 60
10 0 6 -4 10 -10 10 -5 0 -10 21 -10 46 0 26 -6 52 -14 60 -18 18 -57 18 -73
-1z m47 -96 c0 -11 -27 -12 -34 -1 -2 4 4 9 15 9 10 1 19 -2 19 -8z"/>
<path d="M3182 2804 c-15 -17 -6 -29 41 -53 32 -17 35 -31 6 -31 -14 0 -19 5
-16 14 6 16 -29 10 -40 -7 -3 -6 -1 -7 5 -3 7 4 12 1 12 -8 0 -12 11 -16 50
-16 47 0 50 2 50 26 0 33 -22 54 -55 54 -19 0 -25 5 -23 16 4 22 -14 27 -30 8z"/>
<path d="M1940 2423 c-10 -12 -11 -18 -2 -21 21 -7 14 -42 -8 -42 -11 0 -20
-4 -20 -10 0 -5 14 -10 30 -10 29 0 30 1 30 50 0 53 -6 59 -30 33z"/>
<path d="M2290 2430 c0 -5 5 -10 10 -10 6 0 10 -7 10 -16 0 -8 6 -22 14 -30 8
-8 22 -14 30 -14 9 0 16 -4 16 -10 0 -15 29 -12 46 4 29 29 8 86 -31 86 -10 0
-15 -5 -12 -14 3 -7 -3 -20 -14 -30 -23 -20 -25 -20 -32 -2 -4 10 -1 13 9 9
18 -7 18 4 0 23 -17 16 -46 19 -46 4z m120 -40 c0 -20 -5 -30 -15 -30 -21 0
-30 27 -15 45 19 23 30 18 30 -15z"/>
<path d="M2490 2430 c0 -5 9 -10 20 -10 16 0 20 -7 20 -30 0 -23 -4 -30 -20
-30 -11 0 -20 -4 -20 -10 0 -14 37 -12 44 3 5 10 7 10 12 0 8 -18 44 -16 44 3
0 8 4 13 8 10 5 -3 9 13 10 35 2 33 0 39 -18 39 -11 0 -20 -4 -20 -10 0 -5 5
-10 10 -10 15 0 12 -30 -5 -47 -19 -18 -22 -16 -27 17 -1 14 -8 31 -15 38 -14
14 -43 16 -43 2z"/>
<path d="M2650 2430 c0 -5 5 -10 10 -10 6 0 10 5 10 10 0 6 -4 10 -10 10 -5 0
-10 -4 -10 -10z"/>
<path d="M2690 2420 c0 -11 5 -20 10 -20 6 0 10 -13 10 -30 0 -16 5 -30 10
-30 6 0 10 23 10 50 0 43 -3 50 -20 50 -13 0 -20 -7 -20 -20z"/>
<path d="M2750 2414 c0 -18 6 -28 21 -31 14 -4 19 -12 16 -24 -3 -12 0 -16 9
-12 8 3 14 16 14 29 0 13 5 24 10 24 6 0 10 -4 10 -10 0 -5 9 -10 20 -10 11 0
20 -4 20 -10 0 -5 5 -10 10 -10 6 0 10 7 10 16 0 8 6 22 14 30 17 16 46 19 46
4 0 -5 -9 -10 -20 -10 -11 0 -20 -4 -20 -10 0 -5 9 -10 21 -10 11 0 17 -4 14
-10 -3 -5 1 -10 9 -10 20 0 21 46 2 66 -17 16 -46 19 -46 4 0 -5 -9 -10 -20
-10 -11 0 -20 5 -20 10 0 6 -9 10 -20 10 -11 0 -20 -4 -20 -10 0 -5 -9 -10
-20 -10 -11 0 -20 -7 -20 -15 0 -8 -4 -15 -10 -15 -16 0 -12 22 8 36 15 12 14
13 -10 14 -24 0 -28 -4 -28 -26z m120 -3 c0 -6 -4 -13 -10 -16 -5 -3 -10 1
-10 9 0 9 5 16 10 16 6 0 10 -4 10 -9z"/>
<path d="M3856 2424 c-10 -25 -7 -84 4 -84 6 0 10 23 10 50 0 52 -4 61 -14 34z"/>
<path d="M3887 2429 c7 -7 15 -10 18 -7 3 3 -2 9 -12 12 -14 6 -15 5 -6 -5z"/>
<path d="M3950 2390 c0 -27 5 -50 10 -50 6 0 10 9 10 19 0 11 6 22 13 25 10 5
10 7 0 12 -7 3 -13 14 -13 25 0 10 -4 19 -10 19 -5 0 -10 -22 -10 -50z"/>
<path d="M4043 2425 c-7 -8 -13 -25 -13 -38 0 -26 26 -55 38 -42 4 4 1 10 -5
12 -15 5 -18 63 -3 63 6 0 10 5 10 10 0 14 -13 12 -27 -5z"/>
<path d="M4090 2430 c0 -5 5 -10 10 -10 6 0 10 5 10 10 0 6 -4 10 -10 10 -5 0
-10 -4 -10 -10z"/>
<path d="M2453 2415 c0 -9 6 -14 13 -11 8 3 10 -3 7 -17 -5 -18 -3 -20 8 -9
10 9 11 17 3 29 -14 23 -31 27 -31 8z"/>
<path d="M2007 2405 c-18 -13 -24 -65 -7 -65 6 0 10 9 10 20 0 11 5 20 10 20
6 0 10 -9 10 -20 0 -11 5 -20 10 -20 15 0 12 49 -3 64 -11 11 -17 11 -30 1z"/>
<path d="M2070 2380 c0 -22 5 -40 10 -40 6 0 10 18 10 40 0 22 -4 40 -10 40
-5 0 -10 -18 -10 -40z"/>
<path d="M3395 2410 c3 -5 8 -10 11 -10 2 0 4 5 4 10 0 6 -5 10 -11 10 -5 0
-7 -4 -4 -10z"/>
<path d="M4101 2411 c-11 -7 -11 -9 0 -13 12 -5 12 -9 1 -28 -16 -27 -8 -38
13 -17 15 16 21 67 8 67 -5 0 -14 -4 -22 -9z"/>
<path d="M2150 2402 c0 -6 -9 -14 -20 -17 -11 -3 -20 -14 -20 -24 0 -14 9 -18
40 -19 39 -2 40 -1 40 30 0 17 -3 28 -7 25 -3 -4 -12 -2 -20 4 -9 8 -13 8 -13
1z m0 -32 c0 -5 -4 -10 -10 -10 -5 0 -10 5 -10 10 0 6 5 10 10 10 6 0 10 -4
10 -10z"/>
<path d="M3480 2400 c0 -5 -7 -7 -15 -4 -11 5 -15 -1 -15 -25 0 -17 5 -31 10
-31 6 0 10 9 10 20 0 11 5 20 10 20 6 0 10 -9 10 -20 0 -11 5 -20 10 -20 16 0
12 57 -5 64 -8 3 -15 1 -15 -4z"/>
<path d="M3683 2403 c-7 -2 -13 -18 -13 -34 0 -24 4 -29 26 -29 29 0 54 21 54
44 0 9 -6 16 -14 16 -8 0 -20 2 -28 4 -7 3 -19 2 -25 -1z m27 -14 c0 -5 5 -7
10 -4 6 3 10 0 10 -8 0 -8 -9 -17 -20 -20 -16 -4 -20 0 -20 19 0 13 5 24 10
24 6 0 10 -5 10 -11z"/>
<path d="M1890 2380 c0 -11 5 -20 10 -20 6 0 10 9 10 20 0 11 -4 20 -10 20 -5
0 -10 -9 -10 -20z"/>
<path d="M3370 2370 c0 -16 5 -30 10 -30 6 0 10 14 10 30 0 17 -4 30 -10 30
-5 0 -10 -13 -10 -30z"/>
<path d="M3530 2370 c0 -16 5 -30 10 -30 6 0 10 14 10 30 0 17 -4 30 -10 30
-5 0 -10 -13 -10 -30z"/>
<path d="M3590 2370 c0 -16 5 -30 10 -30 6 0 10 14 10 30 0 17 -4 30 -10 30
-5 0 -10 -13 -10 -30z"/>
<path d="M3630 2360 c0 -33 -3 -40 -20 -40 -11 0 -20 -4 -20 -10 0 -5 14 -10
30 -10 29 0 30 1 30 50 0 28 -4 50 -10 50 -5 0 -10 -18 -10 -40z"/>
<path d="M2630 2360 c0 -11 5 -20 10 -20 6 0 10 9 10 20 0 11 -4 20 -10 20 -5
0 -10 -9 -10 -20z"/>
<path d="M2215 2350 c3 -5 8 -10 11 -10 2 0 4 5 4 10 0 6 -5 10 -11 10 -5 0
-7 -4 -4 -10z"/>
<path d="M2290 2351 c0 -6 9 -9 19 -8 11 0 17 5 15 9 -7 11 -34 10 -34 -1z"/>
<path d="M2435 2350 c-3 -5 -1 -10 4 -10 6 0 11 5 11 10 0 6 -2 10 -4 10 -3 0
-8 -4 -11 -10z"/>
<path d="M2755 2350 c-3 -5 -1 -10 4 -10 6 0 11 5 11 10 0 6 -2 10 -4 10 -3 0
-8 -4 -11 -10z"/>
<path d="M2835 2350 c-3 -5 -1 -10 4 -10 6 0 11 5 11 10 0 6 -2 10 -4 10 -3 0
-8 -4 -11 -10z"/>
<path d="M2910 2350 c0 -5 10 -10 23 -10 18 0 19 2 7 10 -19 13 -30 13 -30 0z"/>
<path d="M3400 2356 c0 -2 7 -7 16 -10 8 -3 12 -2 9 4 -6 10 -25 14 -25 6z"/>
<path d="M2310 2050 c0 -47 12 -66 23 -37 4 9 8 8 16 -3 10 -13 12 -13 22 0 8
11 12 12 16 3 11 -29 23 -10 23 37 0 28 -3 50 -6 50 -11 0 -34 -29 -34 -44 0
-9 -4 -16 -10 -16 -5 0 -10 7 -10 16 0 15 -23 44 -34 44 -3 0 -6 -22 -6 -50z"/>
<path d="M1890 2044 c0 -8 6 -22 14 -30 16 -16 85 -19 87 -4 1 6 2 14 3 19 0
5 5 13 9 18 5 4 7 2 5 -6 -1 -7 3 -16 10 -18 7 -3 12 4 12 16 0 28 -50 29 -70
1 -8 -11 -18 -20 -22 -20 -4 0 -8 9 -8 20 0 13 -7 20 -20 20 -12 0 -20 -7 -20
-16z"/>
<path d="M2050 2051 c0 -5 6 -12 13 -15 10 -5 10 -7 0 -12 -16 -7 -17 -31 -1
-40 7 -5 8 -3 3 6 -6 10 -1 12 19 8 18 -4 26 -1 26 8 0 8 -5 14 -12 14 -9 0
-9 3 0 12 19 19 14 28 -18 28 -16 0 -30 -4 -30 -9z"/>
<path d="M2150 2050 c0 -5 9 -10 19 -10 11 0 23 5 26 10 4 6 -5 10 -19 10 -14
0 -26 -4 -26 -10z"/>
<path d="M2235 2050 c3 -5 8 -10 11 -10 2 0 4 5 4 10 0 6 -5 10 -11 10 -5 0
-7 -4 -4 -10z"/>
<path d="M2130 2026 c0 -14 5 -26 10 -26 6 0 10 9 10 19 0 11 -4 23 -10 26 -6
4 -10 -5 -10 -19z"/>
<path d="M2190 2020 c0 -11 5 -20 10 -20 6 0 10 9 10 20 0 11 -4 20 -10 20 -5
0 -10 -9 -10 -20z"/>
<path d="M2032 1053 l3 -188 38 -3 37 -3 0 190 0 191 -40 0 -40 0 2 -187z"/>
<path d="M2150 1050 c0 -120 4 -190 10 -190 6 0 10 70 10 190 0 120 -4 190
-10 190 -6 0 -10 -70 -10 -190z"/>
<path d="M2250 1050 c0 -183 1 -190 20 -190 19 0 20 7 20 190 0 183 -1 190
-20 190 -19 0 -20 -7 -20 -190z"/>
<path d="M2310 1050 c0 -120 4 -190 10 -190 6 0 10 70 10 190 0 120 -4 190
-10 190 -6 0 -10 -70 -10 -190z"/>
<path d="M2410 1050 c0 -120 4 -190 10 -190 6 0 10 70 10 190 0 120 -4 190
-10 190 -6 0 -10 -70 -10 -190z"/>
<path d="M2510 1050 c0 -183 1 -190 20 -190 19 0 20 7 20 190 0 183 -1 190
-20 190 -19 0 -20 -7 -20 -190z"/>
<path d="M2590 1050 c0 -120 4 -190 10 -190 6 0 10 70 10 190 0 120 -4 190
-10 190 -6 0 -10 -70 -10 -190z"/>
<path d="M2930 1050 l0 -190 26 0 c14 0 23 4 19 10 -3 6 -1 10 5 10 7 0 10 55
9 170 -1 99 -5 170 -11 170 -5 0 -6 5 -3 10 4 6 -5 10 -19 10 l-26 0 0 -190z"/>
<path d="M3050 1050 c0 -120 4 -190 10 -190 6 0 10 70 10 190 0 120 -4 190
-10 190 -6 0 -10 -70 -10 -190z"/>
<path d="M3150 1050 c0 -124 4 -190 10 -190 7 0 10 65 10 190 -1 108 -6 190
-11 190 -5 0 -9 -81 -9 -190z"/>
<path d="M3190 1050 c0 -183 1 -190 20 -190 19 0 20 7 20 190 0 183 -1 190
-20 190 -19 0 -20 -7 -20 -190z"/>
<path d="M3317 1233 c-11 -11 -8 -361 3 -368 7 -4 10 60 10 184 0 105 -1 191
-3 191 -2 0 -7 -3 -10 -7z"/>
<path d="M3390 1050 l0 -190 30 0 30 0 0 190 0 190 -30 0 -30 0 0 -190z"/>
<path d="M3670 1050 l0 -190 30 0 30 0 0 190 0 190 -30 0 -30 0 0 -190z"/>
<path d="M3790 1050 c0 -120 4 -190 10 -190 6 0 10 70 10 190 0 120 -4 190
-10 190 -6 0 -10 -70 -10 -190z"/>
<path d="M3890 1050 c0 -183 1 -190 20 -190 19 0 20 7 20 190 0 183 -1 190
-20 190 -19 0 -20 -7 -20 -190z"/>
<path d="M3950 1050 c0 -120 4 -190 10 -190 6 0 10 70 10 190 0 120 -4 190
-10 190 -6 0 -10 -70 -10 -190z"/>
<path d="M4050 1050 c0 -120 4 -190 10 -190 6 0 10 70 10 190 0 120 -4 190
-10 190 -6 0 -10 -70 -10 -190z"/>
<path d="M4150 1050 l0 -190 26 0 c20 0 25 4 20 16 -3 9 -6 94 -6 190 0 167
-1 174 -20 174 -19 0 -20 -7 -20 -190z"/>
<path d="M4230 1050 c0 -120 4 -190 10 -190 6 0 10 70 10 190 0 120 -4 190
-10 190 -6 0 -10 -70 -10 -190z"/>
<path d="M4317 1233 c-11 -11 -8 -373 3 -373 6 0 10 70 10 190 0 105 -1 190
-3 190 -2 0 -7 -3 -10 -7z"/>
<path d="M4450 1050 c0 -145 3 -190 13 -190 9 0 11 43 9 190 -2 112 -7 190
-12 190 -6 0 -10 -76 -10 -190z"/>
<path d="M4557 1233 c-2 -5 -5 -90 -5 -190 l-2 -183 30 0 30 0 0 190 0 190
-24 0 c-14 0 -27 -3 -29 -7z"/>
<path d="M4690 1050 c0 -120 4 -190 10 -190 6 0 10 70 10 190 0 120 -4 190
-10 190 -6 0 -10 -70 -10 -190z"/>
<path d="M4790 1050 c0 -120 4 -190 10 -190 6 0 10 70 10 190 0 120 -4 190
-10 190 -6 0 -10 -70 -10 -190z"/>
<path d="M4830 1050 c0 -183 1 -190 20 -190 19 0 20 7 20 190 0 183 -1 190
-20 190 -19 0 -20 -7 -20 -190z"/>
<path d="M4950 1050 c0 -120 4 -190 10 -190 6 0 10 70 10 190 0 120 -4 190
-10 190 -6 0 -10 -70 -10 -190z"/>
<path d="M5030 1050 l0 -190 30 0 30 0 0 190 0 190 -30 0 -30 0 0 -190z"/>
<path d="M2670 1058 c0 -95 4 -179 9 -187 6 -9 10 56 11 172 0 122 -3 187 -10
187 -6 0 -10 -61 -10 -172z"/>
<path d="M2730 1045 c0 -117 4 -185 10 -185 6 0 10 68 10 185 0 117 -4 185
-10 185 -6 0 -10 -68 -10 -185z"/>
<path d="M2870 1045 c0 -117 4 -185 10 -185 6 0 10 68 10 185 0 117 -4 185
-10 185 -6 0 -10 -68 -10 -185z"/>
<path d="M4370 1051 c0 -114 4 -181 10 -181 6 0 10 65 10 174 0 106 -4 177
-10 181 -7 4 -10 -57 -10 -174z"/>
<path d="M4510 1051 c0 -114 4 -181 10 -181 6 0 10 65 10 174 0 106 -4 177
-10 181 -7 4 -10 -57 -10 -174z"/>
<path d="M4732 1082 c-2 -87 1 -153 8 -162 7 -10 10 32 10 142 0 86 -4 159 -8
162 -4 2 -9 -62 -10 -142z"/>
<path d="M1914 1180 c0 -22 4 -40 8 -40 5 0 8 18 8 40 0 22 -4 40 -9 40 -5 0
-8 -18 -7 -40z"/>
<path d="M1951 1078 c0 -79 2 -138 4 -133 8 21 10 275 3 275 -4 0 -8 -64 -7
-142z"/>
<path d="M2810 1040 c0 -113 4 -180 10 -180 6 0 10 67 10 180 0 113 -4 180
-10 180 -6 0 -10 -67 -10 -180z"/>
<path d="M3861 1204 c0 -11 3 -14 6 -6 3 7 2 16 -1 19 -3 4 -6 -2 -5 -13z"/>
<path d="M3502 1185 c0 -16 2 -22 5 -12 2 9 2 23 0 30 -3 6 -5 -1 -5 -18z"/>
<path d="M3502 1000 c0 -14 2 -19 5 -12 2 6 2 18 0 25 -3 6 -5 1 -5 -13z"/>
<path d="M1915 890 c-3 -5 -1 -10 4 -10 6 0 11 5 11 10 0 6 -2 10 -4 10 -3 0
-8 -4 -11 -10z"/>
<path d="M1955 890 c-3 -5 -1 -10 4 -10 6 0 11 5 11 10 0 6 -2 10 -4 10 -3 0
-8 -4 -11 -10z"/>
<path d="M4737 894 c-4 -4 -7 -14 -7 -23 0 -11 3 -12 11 -4 6 6 10 16 7 23 -2
6 -7 8 -11 4z"/>
</g>
</svg>
